PathFileType	4	(X/Y/Z)	C:\Users\dbl\Desktop\LZH\BX\Trimmed_bx_y_0_1801.trc
DataRate	CameraRate	NumFrames	NumMarkers	Units	OrigDataRate	OrigDataStartFrame	OrigNumFrames
50.00	50.00	      5	43	mm	50.00	922	      1475
Frame#	Time	Top.Head			R.Acromium			L.Acromium			Sternum			R.ASIS			L.ASIS			V.Sacral			R.Thigh.Upper			R.Thigh.Front			R.Thigh.Rear			R.Knee.Lat			R.Knee.Med			R.Shank.Upper			R.Shank.Front			R.Shank.Rear			R.Ankle.Lat			R.Midfoot.Lat			R.Toe.Lat			R.Toe.Tip			R.Toe.Med			R.Ankle.Med			R.Midfoot.Sup			R.Heel			L.Thigh.Upper			L.Thigh.Front			L.Thigh.Rear			L.Knee.Lat			L.Knee.Med			L.Shank.Upper			L.Shank.Front			L.Shank.Rear			L.Ankle.Lat			L.Midfoot.Lat			L.Toe.Lat			L.Toe.Tip			L.Toe.Med			L.Ankle.Med			L.Midfoot.Sup			L.Heel			origin1 front left			origin2 front right			origin 3 back right			origin 4 back leftt			
		X1	Y1	Z1	X2	Y2	Z2	X3	Y3	Z3	X4	Y4	Z4	X5	Y5	Z5	X6	Y6	Z6	X7	Y7	Z7	X8	Y8	Z8	X9	Y9	Z9	X10	Y10	Z10	X11	Y11	Z11	X12	Y12	Z12	X13	Y13	Z13	X14	Y14	Z14	X15	Y15	Z15	X16	Y16	Z16	X17	Y17	Z17	X18	Y18	Z18	X19	Y19	Z19	X20	Y20	Z20	X21	Y21	Z21	X22	Y22	Z22	X23	Y23	Z23	X24	Y24	Z24	X25	Y25	Z25	X26	Y26	Z26	X27	Y27	Z27	X28	Y28	Z28	X29	Y29	Z29	X30	Y30	Z30	X31	Y31	Z31	X32	Y32	Z32	X33	Y33	Z33	X34	Y34	Z34	X35	Y35	Z35	X36	Y36	Z36	X37	Y37	Z37	X38	Y38	Z38	X39	Y39	Z39	X40	Y40	Z40	X41	Y41	Z41	X42	Y42	Z42	X43	Y43	Z43	

922	18.420	-384.84760	-34.76230	1622.31775	-663.72498	16.45715	1465.26587	-457.21545	341.41446	1525.32520	-508.43121	200.74193	1337.25586	-606.48053	191.22588	1051.05872	-516.67041	406.82123	1063.71008	-748.45282	360.47507	1054.47766	-644.18494	149.06161	896.13806	-574.14148	187.77057	848.94635	-675.92688	145.00607	751.58032	-669.02063	166.59677	604.67798	-626.65997	267.92862	555.89697	-692.30029	166.47475	542.87762	-601.65155	203.63385	549.50867	-727.25159	164.23228	475.98471	-685.25360	153.54916	217.81892	-615.85278	82.03670	169.72510	-572.70001	53.63643	162.95831	-493.14304	90.69523	159.74687	-531.53278	143.67702	164.08351	-629.45172	224.91586	214.86452	-590.36578	191.28700	165.46991	-713.67676	219.41866	170.11574	-531.83496	471.27646	886.76239	-505.81030	398.21231	842.24817	-575.08191	477.51419	748.07690	-617.62061	450.52908	623.95056	-604.02911	340.73395	585.78009	-630.31506	442.45337	560.22589	-585.89166	393.18854	540.56134	-686.15186	451.13904	509.82062	-678.30505	420.25827	209.90053	-585.87201	468.73401	163.43512	-546.74786	480.18582	158.40297	-489.50284	427.68503	168.63461	-525.84796	387.39374	177.53464	-644.16956	330.23535	211.30092	-595.21252	348.92426	171.57085	-733.44397	346.24561	165.51878	-443.78421	448.46085	148.08383	-450.20242	76.25657	143.32388	-806.21167	82.68462	142.57352	-799.19507	457.78586	145.02211	
923	18.440	-382.94308	-32.76633	1623.13147	-662.00861	16.85352	1465.58008	-457.04703	342.91330	1525.22742	-507.58902	201.47348	1337.68701	-605.67883	191.43318	1051.08093	-516.72186	407.43961	1063.58484	-748.29755	360.17752	1054.49011	-643.52167	149.16832	896.16101	-573.69037	188.08093	848.84821	-675.63550	144.85942	751.81268	-668.97803	166.65482	604.62799	-626.90460	267.89215	555.77460	-692.37964	166.50151	542.86920	-601.73541	203.65399	549.49353	-727.34882	164.27325	475.95599	-685.26965	153.54300	217.81407	-615.89105	82.00946	169.69112	-572.72375	53.58791	162.97746	-493.13968	90.68697	159.76692	-531.53754	143.66960	164.08128	-629.73938	224.83109	214.54874	-590.34106	191.29747	165.49843	-713.75317	219.37628	170.09851	-532.06958	471.82788	886.64868	-505.87680	398.74203	842.10974	-575.45105	477.77539	747.99860	-617.95300	450.70746	623.92725	-604.08362	340.94257	585.74292	-630.53302	442.53687	560.22772	-586.07660	393.35757	540.50299	-686.36389	451.15912	509.74463	-678.36670	420.19766	209.87306	-585.88495	468.74899	163.42232	-546.75592	480.23642	158.36948	-489.51041	427.70337	168.61674	-525.81030	387.44299	177.56993	-644.31299	330.36102	211.21791	-595.22437	348.87784	171.65787	-733.46899	346.26288	165.52895	-443.78326	448.44748	148.05927	-450.20041	76.25892	143.31889	-806.24255	82.70964	142.54697	-799.16852	457.80334	145.00728	
924	18.460	-380.82648	-30.51819	1624.07324	-660.12878	17.26065	1465.96472	-456.90204	344.56830	1525.10657	-506.79614	202.29413	1338.04846	-604.86414	191.58963	1051.09534	-516.85461	408.02344	1063.44067	-748.21429	359.76950	1054.54810	-642.90167	149.22556	896.20856	-573.29407	188.35040	848.75519	-675.41040	144.64833	752.02826	-669.00220	166.62321	604.62604	-627.26831	267.80783	555.61896	-692.56305	166.47307	542.85846	-601.91687	203.64000	549.46136	-727.51666	164.31094	475.91946	-685.31671	153.54370	217.78476	-615.95044	81.96912	169.62468	-572.75146	53.53380	162.99365	-493.14804	90.67632	159.77895	-531.53882	143.65910	164.08195	-630.22119	224.69121	214.02031	-590.29205	191.28386	165.57301	-713.82117	219.36766	170.07861	-532.49377	472.31937	886.47675	-506.00357	399.33151	841.94000	-575.96051	478.08856	747.98413	-618.41901	450.87347	623.90686	-604.17432	341.19196	585.67322	-630.86743	442.65802	560.30298	-586.32898	393.58057	540.45636	-686.65826	451.11505	509.62973	-678.43616	420.17795	209.87444	-585.89465	468.78262	163.41173	-546.77441	480.30725	158.31245	-489.51749	427.71835	168.60046	-525.78375	387.51071	177.61560	-644.48535	330.50436	211.14017	-595.21948	348.90668	171.64122	-733.52264	346.27719	165.54114	-443.78406	448.43991	148.03679	-450.19958	76.26179	143.31821	-806.27759	82.73514	142.52435	-799.13049	457.82755	144.96317	
925	18.480	-378.52982	-27.96722	1625.17517	-658.10901	17.69408	1466.46069	-456.80127	346.38672	1524.98657	-506.07858	203.24518	1338.30994	-604.02246	191.67804	1051.08948	-517.06812	408.55347	1063.27197	-748.19647	359.22937	1054.64929	-642.30164	149.21877	896.25934	-572.92816	188.57393	848.66309	-675.17493	144.39185	752.19037	-669.05347	166.49971	604.66364	-627.70459	267.69315	555.45801	-692.80286	166.36258	542.86017	-602.16217	203.59677	549.39453	-727.72028	164.31860	475.88742	-685.38855	153.55396	217.73701	-616.03027	81.91634	169.52518	-572.78094	53.47669	162.99646	-493.16589	90.66383	159.78415	-531.53723	143.64807	164.08514	-630.80481	224.51453	213.38988	-590.23401	191.24019	165.68726	-713.85602	219.39687	170.06639	-533.06683	472.73358	886.28925	-506.19937	399.93774	841.74426	-576.61084	478.39941	748.00092	-619.02637	451.00208	623.88989	-604.33008	341.45953	585.57379	-631.34393	442.82379	560.43671	-586.66388	393.84125	540.43610	-687.05524	451.03244	509.50845	-678.53180	420.21149	209.89156	-585.90631	468.84265	163.39537	-546.79803	480.39410	158.23906	-489.51990	427.73474	168.59041	-525.77606	387.59247	177.66426	-644.68042	330.66354	211.06995	-595.21027	349.01215	171.55151	-733.59772	346.29428	165.56088	-443.78656	448.43774	148.02138	-450.19983	76.26263	143.32106	-806.29846	82.74144	142.51892	-799.08514	457.85260	144.89491	
926	18.500	-376.08173	-25.04865	1626.48438	-655.97876	18.17946	1467.11853	-456.77463	348.37860	1524.88269	-505.44565	204.34959	1338.48083	-603.14008	191.66812	1051.06665	-517.35303	409.02271	1063.07666	-748.22961	358.52475	1054.77698	-641.67755	149.12428	896.28461	-572.55469	188.74329	848.56592	-674.85095	144.09088	752.28809	-669.08472	166.29062	604.72406	-628.16187	267.56363	555.32532	-693.04633	166.15149	542.88275	-602.43042	203.52441	549.28662	-727.91907	164.26514	475.86792	-685.47656	153.57173	217.67897	-616.12390	81.85500	169.40231	-572.81464	53.41637	162.98105	-493.18781	90.65006	159.78717	-531.53607	143.63878	164.08920	-631.32629	224.34502	212.85001	-590.17932	191.17520	165.83090	-713.85046	219.45317	170.06805	-533.72284	473.06042	886.12646	-506.48837	400.49664	841.52728	-577.38904	478.63614	748.01123	-619.77106	451.06161	623.87439	-604.58606	341.70462	585.45276	-631.97058	442.99661	560.59186	-587.10022	394.09735	540.44727	-687.56848	450.92719	509.41571	-678.66528	420.29355	209.91231	-585.92444	468.93024	163.36609	-546.81970	480.48956	158.16139	-489.51578	427.75372	168.58826	-525.78900	387.68005	177.70770	-644.88867	330.83505	211.00748	-595.21307	349.16971	171.45004	-733.67828	346.31903	165.59050	-443.78897	448.43860	148.01428	-450.20050	76.26001	143.32504	-806.28571	82.71101	142.53877	-799.04291	457.86310	144.82620	
